<svg width="176" height="65" viewBox="0 0 176 65" fill="none" xmlns="http://www.w3.org/2000/svg">
<path d="M0.866211 64V1.45454H27.8634C32.5054 1.45454 36.5672 2.37074 40.0487 4.20312C43.5303 6.03551 46.2381 8.61103 48.1723 11.9297C50.1065 15.2483 51.0736 19.1269 51.0736 23.5653C51.0736 28.0445 50.076 31.9231 48.0807 35.201C46.1058 38.4789 43.3267 41.0036 39.7433 42.7749C36.1804 44.5462 32.0168 45.4318 27.2526 45.4318H11.1276V32.2386H23.8321C25.8274 32.2386 27.5274 31.8925 28.9323 31.2003C30.3575 30.4877 31.4467 29.4799 32.2 28.1768C32.9737 26.8738 33.3605 25.3366 33.3605 23.5653C33.3605 21.7737 32.9737 20.2467 32.2 18.9844C31.4467 17.7017 30.3575 16.7244 28.9323 16.0526C27.5274 15.3603 25.8274 15.0142 23.8321 15.0142H17.8463V64H0.866211ZM57.3037 64V1.45454H84.3009C88.9429 1.45454 93.0047 2.29948 96.4862 3.98935C99.9678 5.67921 102.676 8.11222 104.61 11.2884C106.544 14.4645 107.511 18.2718 107.511 22.7102C107.511 27.1894 106.513 30.9661 104.518 34.0405C102.543 37.1148 99.7642 39.4358 96.1808 41.0036C92.6179 42.5713 88.4543 43.3551 83.6901 43.3551H67.5651V30.1619H80.2696C82.2649 30.1619 83.9649 29.9176 85.3698 29.429C86.795 28.92 87.8842 28.1158 88.6375 27.0163C89.4112 25.9169 89.798 24.4815 89.798 22.7102C89.798 20.9186 89.4112 19.4628 88.6375 18.343C87.8842 17.2029 86.795 16.3681 85.3698 15.8388C83.9649 15.2891 82.2649 15.0142 80.2696 15.0142H74.2838V64H57.3037ZM93.9514 35.2926L109.588 64H91.1418L75.8719 35.2926H93.9514ZM175.34 32.7273C175.34 39.6903 173.986 45.5642 171.278 50.3487C168.57 55.1129 164.916 58.7268 160.314 61.1903C155.713 63.6335 150.582 64.8551 144.922 64.8551C139.222 64.8551 134.071 63.6233 129.469 61.1598C124.888 58.6759 121.244 55.0518 118.536 50.2876C115.848 45.5031 114.505 39.6496 114.505 32.7273C114.505 25.7642 115.848 19.9006 118.536 15.1364C121.244 10.3518 124.888 6.73792 129.469 4.29474C134.071 1.8312 139.222 0.599429 144.922 0.599429C150.582 0.599429 155.713 1.8312 160.314 4.29474C164.916 6.73792 168.57 10.3518 171.278 15.1364C173.986 19.9006 175.34 25.7642 175.34 32.7273ZM157.871 32.7273C157.871 28.9811 157.372 25.8253 156.375 23.2599C155.397 20.6742 153.942 18.7197 152.008 17.3963C150.094 16.0526 147.732 15.3807 144.922 15.3807C142.113 15.3807 139.741 16.0526 137.807 17.3963C135.893 18.7197 134.437 20.6742 133.439 23.2599C132.462 25.8253 131.973 28.9811 131.973 32.7273C131.973 36.4735 132.462 39.6394 133.439 42.2251C134.437 44.7905 135.893 46.745 137.807 48.0888C139.741 49.4122 142.113 50.0739 144.922 50.0739C147.732 50.0739 150.094 49.4122 152.008 48.0888C153.942 46.745 155.397 44.7905 156.375 42.2251C157.372 39.6394 157.871 36.4735 157.871 32.7273Z" fill="#1467E5"/>
</svg>
