<svg width="127" height="47" viewBox="0 0 127 47" fill="none" xmlns="http://www.w3.org/2000/svg">
<path d="M9.40519 2.69129H25.2348C30.0965 2.69129 33.8778 3.86814 36.5786 6.22183C39.2797 8.57552 40.6301 11.7299 40.6301 15.6848C40.6301 21.0096 38.8841 25.2347 35.3922 28.3599C31.9004 31.4854 27.1639 33.0481 21.1833 33.0481H15.2508L12.82 44.45H0.578857L9.40519 2.69129ZM19.7074 11.9517L17.1319 23.9613H21.27C23.3729 23.9613 25.0707 23.2861 26.3634 21.9356C27.6753 20.5658 28.3312 18.8488 28.3312 16.7845C28.3312 13.5626 26.5274 11.9517 22.9196 11.9517H19.7074ZM56.836 22.0514H62.3052C64.3311 22.0514 65.9516 21.5113 67.167 20.4308C68.3824 19.3311 68.9903 17.9131 68.9903 16.1768C68.9903 13.225 67.2443 11.7491 63.7522 11.7491H59.0642L56.836 22.0514ZM48.7042 2.69129H67.4853C71.7877 2.69129 75.1638 3.85851 77.614 6.1929C80.0641 8.508 81.2892 11.4983 81.2892 15.1639C81.2892 18.2122 80.4307 21.0289 78.7136 23.614C76.9966 26.18 74.5851 28.0706 71.4789 29.286L76.1091 44.45H63.3183L59.3825 30.4436H55.0707L52.09 44.45H39.8199L48.7042 2.69129ZM106.119 11.7491C104.267 11.7491 102.54 12.4147 100.939 13.7459C99.3566 15.0771 98.093 16.8906 97.1477 19.1864C96.2024 21.4823 95.7297 23.971 95.7297 26.6526C95.7297 29.2957 96.3567 31.4179 97.6106 33.0191C98.884 34.6011 100.582 35.3921 102.704 35.3921C105.521 35.3921 107.961 33.9357 110.025 31.0223C112.09 28.0899 113.122 24.569 113.122 20.4597C113.122 17.7974 112.485 15.6848 111.212 14.1221C109.939 12.5401 108.241 11.7491 106.119 11.7491ZM102.328 45.1735C99.4144 45.1735 96.7521 44.7298 94.3405 43.8423C91.929 42.9355 89.9226 41.6911 88.3214 40.1091C86.7201 38.5079 85.4757 36.6268 84.5882 34.4661C83.72 32.2861 83.286 29.9324 83.286 27.4051C83.286 23.6622 83.884 20.1993 85.0801 17.016C86.2955 13.8134 87.945 11.1221 90.0287 8.94209C92.1123 6.74274 94.5624 5.03535 97.3792 3.81992C100.215 2.58519 103.225 1.96783 106.408 1.96783C109.398 1.96783 112.109 2.42121 114.54 3.32797C116.971 4.2347 118.987 5.48872 120.588 7.09C122.189 8.672 123.414 10.5434 124.263 12.7041C125.131 14.8649 125.566 17.2089 125.566 19.7363C125.566 23.4984 124.948 26.9805 123.714 30.1832C122.498 33.3858 120.839 36.0771 118.736 38.2571C116.652 40.418 114.193 42.1155 111.357 43.3504C108.521 44.5658 105.511 45.1735 102.328 45.1735Z" fill="#165BC3"/>
</svg>