<svg width="150" height="19" viewBox="0 0 150 19" fill="none" xmlns="http://www.w3.org/2000/svg">
<path d="M3.80859 1.09084H10.2188C12.1875 1.09084 13.7187 1.56783 14.8125 2.52182C15.9063 3.4758 16.4531 4.7543 16.4531 6.35731C16.4531 8.51551 15.7461 10.228 14.332 11.4947C12.918 12.7615 11 13.3949 8.57811 13.3949H6.17578L5.19141 18.0163H0.234375L3.80859 1.09084ZM7.98047 4.84422L6.9375 9.71189H8.61326C9.46483 9.71189 10.1523 9.43821 10.6758 8.89086C11.2071 8.33566 11.4727 7.63972 11.4727 6.80303C11.4727 5.49716 10.7422 4.84422 9.28123 4.84422H7.98047ZM23.0157 8.93779H25.2304C26.0508 8.93779 26.707 8.71885 27.1992 8.28092C27.6914 7.8352 27.9375 7.26047 27.9375 6.55671C27.9375 5.36032 27.2305 4.76212 25.8164 4.76212H23.918L23.0157 8.93779ZM19.7227 1.09084H27.3281C29.0703 1.09084 30.4375 1.56393 31.4297 2.51009C32.4219 3.44844 32.918 4.66047 32.918 6.14618C32.918 7.38168 32.5703 8.52333 31.875 9.57111C31.1797 10.6112 30.2031 11.3774 28.9453 11.8701L30.8203 18.0163H25.6407L24.0469 12.3393H22.3008L21.0938 18.0163H16.125L19.7227 1.09084ZM42.9727 4.76212C42.2227 4.76212 41.5234 5.03189 40.875 5.57144C40.2344 6.111 39.7227 6.84603 39.3399 7.77656C38.9571 8.7071 38.7657 9.71583 38.7657 10.8027C38.7657 11.874 39.0195 12.7342 39.5273 13.3832C40.043 14.0244 40.7305 14.345 41.5899 14.345C42.7305 14.345 43.7187 13.7547 44.5547 12.5738C45.3906 11.3853 45.8086 9.9582 45.8086 8.29265C45.8086 7.21355 45.5508 6.35731 45.0351 5.72393C44.5196 5.08272 43.8321 4.76212 42.9727 4.76212ZM41.4375 18.3095C40.2578 18.3095 39.1797 18.1297 38.2031 17.77C37.2266 17.4024 36.4141 16.8981 35.7657 16.2569C35.1172 15.6078 34.6133 14.8454 34.2539 13.9696C33.9023 13.0861 33.7266 12.1321 33.7266 11.1077C33.7266 9.59067 33.9687 8.18709 34.4531 6.89686C34.9453 5.59881 35.6133 4.50799 36.457 3.62438C37.3008 2.73295 38.2929 2.04092 39.4336 1.54829C40.582 1.04783 41.8008 0.797607 43.0899 0.797607C44.3007 0.797607 45.3984 0.981366 46.3828 1.34889C47.3672 1.7164 48.1836 2.22468 48.832 2.8737C49.4805 3.51491 49.9766 4.2734 50.3203 5.14919C50.6719 6.02498 50.8477 6.97506 50.8477 7.99942C50.8477 9.52426 50.5977 10.9356 50.0977 12.2337C49.6054 13.5318 48.9336 14.6226 48.082 15.5062C47.2383 16.382 46.2422 17.0701 45.0938 17.5706C43.9453 18.0632 42.7266 18.3095 41.4375 18.3095ZM91.7691 18.0163H86.8011L89.5543 5.03189H84.8554L85.6992 1.09084H100.066L99.2229 5.03189H94.5231L91.7691 18.0163ZM110.965 14.0752L110.133 18.0163H98.2029L101.801 1.09084H113.719L112.875 5.03189H105.926L105.351 7.77656H111.867L111.105 11.3423H104.589L104.004 14.0752H110.965ZM125.543 7.90558C125.551 7.85867 125.554 7.70227 125.554 7.43641C125.554 6.69355 125.293 6.06799 124.769 5.55972C124.254 5.05144 123.617 4.79731 122.859 4.79731C121.617 4.79731 120.597 5.36814 119.801 6.50979C119.012 7.65145 118.617 9.11761 118.617 10.9083C118.617 11.9483 118.859 12.7693 119.343 13.3714C119.828 13.9657 120.492 14.2629 121.336 14.2629C122.157 14.2629 122.875 14.0204 123.492 13.5356C124.109 13.043 124.543 12.3784 124.793 11.5417H129.609C129.414 12.8788 128.925 14.0596 128.145 15.0839C127.363 16.1083 126.351 16.902 125.109 17.465C123.867 18.028 122.493 18.3095 120.984 18.3095C118.719 18.3095 116.902 17.6643 115.535 16.3741C114.176 15.0839 113.496 13.3636 113.496 11.2132C113.496 8.03851 114.391 5.50889 116.18 3.62438C117.969 1.73986 120.367 0.797607 123.375 0.797607C125.422 0.797607 127.106 1.3958 128.426 2.59219C129.754 3.78859 130.418 5.30949 130.418 7.1549C130.418 7.44423 130.399 7.69445 130.359 7.90558H125.543ZM146.18 18.0163H141.093L142.5 11.4244H136.781L135.375 18.0163H130.289L133.887 1.09084H138.973L137.589 7.5537H143.308L144.692 1.09084H149.777L146.18 18.0163Z" fill="#165BC3"/>
<path d="M60.3047 18.0163H51.0469L54.6446 1.09082H62.4843C64.1016 1.09082 65.3438 1.42706 66.2109 2.09955C67.0781 2.77203 67.5117 3.63609 67.5117 4.69173C67.5117 5.80993 67.1445 6.76782 66.4101 7.56542C65.6757 8.36301 64.7149 8.87129 63.5273 9.09023L63.5156 9.18408C64.4375 9.39522 65.1914 9.80959 65.7773 10.4274C66.3632 11.0373 66.6562 11.7684 66.6562 12.6207C66.6562 14.1925 66.0586 15.4866 64.8632 16.5031C63.668 17.5119 62.1484 18.0163 60.3047 18.0163ZM58.8281 4.17564L58.1016 7.61234H60.2109C60.914 7.61234 61.4804 7.42467 61.9101 7.04933C62.3476 6.66616 62.5664 6.18136 62.5664 5.59488C62.5664 5.16481 62.4101 4.82075 62.0977 4.56271C61.7852 4.30466 61.3359 4.17564 60.75 4.17564H58.8281ZM56.625 14.603H59.039C59.8593 14.603 60.5078 14.3958 60.9843 13.9814C61.4687 13.5669 61.7109 13.0078 61.7109 12.3041C61.7109 11.8036 61.5313 11.4126 61.1719 11.1311C60.8125 10.8418 60.2969 10.6972 59.625 10.6972H57.4453L56.625 14.603ZM75.75 18.0163H70.7812L71.918 12.656L68.5898 1.09082H73.7343L75.293 7.95248H75.3867L79.7343 1.09082H85.1132L76.8867 12.656L75.75 18.0163Z" fill="#0D0D0D"/>
<clipPath id="clip0_309_6">
<rect width="150" height="18.8742" fill="white"/>
</clipPath>
</svg>