<svg width="244" height="31" viewBox="0 0 244 31" fill="none" xmlns="http://www.w3.org/2000/svg">
<path d="M0.698506 30V1.03781H13.1998C15.3493 1.03781 17.2301 1.46206 18.8423 2.31057C20.4545 3.15907 21.7083 4.35168 22.604 5.88841C23.4996 7.42514 23.9474 9.22114 23.9474 11.2764C23.9474 13.3505 23.4855 15.1465 22.5616 16.6644C21.6471 18.1823 20.3602 19.3513 18.7009 20.1715C17.051 20.9917 15.123 21.4019 12.9169 21.4019H5.45011V15.2926H11.3331C12.257 15.2926 13.0442 15.1324 13.6947 14.8118C14.3547 14.4818 14.8591 14.0152 15.2079 13.4118C15.5661 12.8084 15.7453 12.0966 15.7453 11.2764C15.7453 10.4468 15.5661 9.73967 15.2079 9.15515C14.8591 8.56119 14.3547 8.10866 13.6947 7.79754C13.0442 7.477 12.257 7.31672 11.3331 7.31672H8.56129V30H0.698506ZM25.6377 30V1.03781H38.1389C40.2885 1.03781 42.1693 1.42907 43.7815 2.21157C45.3936 2.99408 46.6475 4.1207 47.5431 5.59144C48.4388 7.06217 48.8866 8.82517 48.8866 10.8804C48.8866 12.9545 48.4246 14.7034 47.5007 16.127C46.5862 17.5506 45.2993 18.6254 43.64 19.3513C41.9902 20.0772 40.0622 20.4402 37.8561 20.4402H30.3893V14.331H36.2722C37.1961 14.331 37.9834 14.2179 38.6339 13.9916C39.2938 13.7559 39.7982 13.3835 40.147 12.8744C40.5053 12.3653 40.6844 11.7006 40.6844 10.8804C40.6844 10.0508 40.5053 9.3767 40.147 8.85817C39.7982 8.33021 39.2938 7.94367 38.6339 7.69855C37.9834 7.444 37.1961 7.31672 36.2722 7.31672H33.5004V30H25.6377ZM42.6077 16.7068L49.8482 30H41.3067L34.2358 16.7068H42.6077ZM79.1006 15.5189C79.1006 18.7432 78.4737 21.4631 77.2198 23.6787C75.9659 25.8848 74.2736 27.5582 72.1429 28.699C70.0122 29.8303 67.6364 30.396 65.0155 30.396C62.3757 30.396 59.9905 29.8256 57.8598 28.6848C55.7385 27.5346 54.051 25.8565 52.7971 23.6504C51.5526 21.4348 50.9304 18.7244 50.9304 15.5189C50.9304 12.2946 51.5526 9.5794 52.7971 7.37329C54.051 5.15776 55.7385 3.48433 57.8598 2.35299C59.9905 1.21223 62.3757 0.641846 65.0155 0.641846C67.6364 0.641846 70.0122 1.21223 72.1429 2.35299C74.2736 3.48433 75.9659 5.15776 77.2198 7.37329C78.4737 9.5794 79.1006 12.2946 79.1006 15.5189ZM71.0116 15.5189C71.0116 13.7842 70.7806 12.3229 70.3186 11.135C69.8661 9.93765 69.192 9.03258 68.2964 8.41978C67.4101 7.79754 66.3165 7.48642 65.0155 7.48642C63.7144 7.48642 62.6161 7.79754 61.7205 8.41978C60.8343 9.03258 60.1602 9.93765 59.6982 11.135C59.2457 12.3229 59.0194 13.7842 59.0194 15.5189C59.0194 17.2536 59.2457 18.7196 59.6982 19.917C60.1602 21.1049 60.8343 22.0099 61.7205 22.6322C62.6161 23.245 63.7144 23.5514 65.0155 23.5514C66.3165 23.5514 67.4101 23.245 68.2964 22.6322C69.192 22.0099 69.8661 21.1049 70.3186 19.917C70.7806 18.7196 71.0116 17.2536 71.0116 15.5189ZM137.242 7.37329V1.03781H162.414V7.37329H153.702V30H145.953V7.37329H137.242ZM164.178 30V1.03781H185.051V7.37329H172.041V12.3512H183.977V18.6866H172.041V23.6645H184.995V30H164.178ZM214.795 11.8986H206.819C206.763 11.2387 206.612 10.64 206.367 10.1026C206.131 9.56525 205.801 9.10329 205.377 8.71675C204.962 8.32078 204.458 8.0191 203.864 7.81168C203.27 7.59484 202.596 7.48642 201.841 7.48642C200.521 7.48642 199.404 7.80697 198.49 8.44806C197.585 9.08915 196.896 10.0084 196.425 11.2057C195.963 12.403 195.732 13.8408 195.732 15.5189C195.732 17.2913 195.968 18.7762 196.439 19.9735C196.92 21.1614 197.613 22.0571 198.518 22.6605C199.423 23.2544 200.512 23.5514 201.785 23.5514C202.511 23.5514 203.161 23.4618 203.736 23.2827C204.311 23.0941 204.811 22.8254 205.235 22.4766C205.66 22.1278 206.004 21.7083 206.268 21.218C206.541 20.7183 206.725 20.1574 206.819 19.5351L214.795 19.5917C214.701 20.8173 214.357 22.0665 213.763 23.3393C213.169 24.6026 212.325 25.7716 211.231 26.8464C210.147 27.9117 208.804 28.7697 207.201 29.4202C205.598 30.0707 203.736 30.396 201.615 30.396C198.956 30.396 196.571 29.8256 194.459 28.6848C192.357 27.5441 190.693 25.8659 189.467 23.6504C188.251 21.4348 187.643 18.7244 187.643 15.5189C187.643 12.2946 188.265 9.5794 189.51 7.37329C190.754 5.15776 192.432 3.48433 194.544 2.35299C196.656 1.21223 199.013 0.641846 201.615 0.641846C203.444 0.641846 205.127 0.891682 206.664 1.39135C208.2 1.89103 209.549 2.62168 210.708 3.58332C211.868 4.53553 212.801 5.70929 213.508 7.1046C214.215 8.49991 214.644 10.0979 214.795 11.8986ZM217.168 30V1.03781H225.03V12.3512H235.439V1.03781H243.301V30H235.439V18.6866H225.03V30H217.168Z" fill="#1467E5"/>
<path d="M81.5439 30V1.03781H94.1017C96.3078 1.03781 98.1604 1.33479 99.6594 1.92874C101.168 2.52269 102.304 3.36176 103.068 4.44596C103.841 5.53016 104.227 6.80762 104.227 8.27836C104.227 9.3437 103.991 10.3148 103.52 11.1915C103.058 12.0683 102.408 12.8037 101.569 13.3977C100.729 13.9822 99.7489 14.3876 98.627 14.6138V14.8967C99.8715 14.9438 101.003 15.2596 102.021 15.8442C103.039 16.4193 103.85 17.2159 104.453 18.2341C105.057 19.2429 105.358 20.4308 105.358 21.7978C105.358 23.3817 104.944 24.7911 104.114 26.0262C103.294 27.2612 102.125 28.2323 100.607 28.9394C99.089 29.6465 97.2789 30 95.1765 30H81.5439ZM89.4067 23.7211H93.0835C94.4034 23.7211 95.3933 23.476 96.0532 22.9857C96.7132 22.486 97.0432 21.7507 97.0432 20.7796C97.0432 20.1008 96.8876 19.5257 96.5765 19.0543C96.2654 18.5829 95.8223 18.2247 95.2472 17.9796C94.6815 17.7344 93.998 17.6119 93.1966 17.6119H89.4067V23.7211ZM89.4067 12.7471H92.631C93.3192 12.7471 93.9273 12.6387 94.4552 12.4219C94.9832 12.205 95.3933 11.8939 95.6856 11.4885C95.9873 11.0737 96.1381 10.5693 96.1381 9.97536C96.1381 9.07972 95.8176 8.39621 95.1765 7.92482C94.5354 7.444 93.7246 7.20359 92.7441 7.20359H89.4067V12.7471ZM105.762 1.03781H114.53L120.186 12.8037H120.413L126.069 1.03781H134.837L124.203 20.8927V30H116.396V20.8927L105.762 1.03781Z" fill="#141414"/>
</svg>
